<svg xmlns="http://www.w3.org/2000/svg" viewBox="0 0 64 64" fill="#FFF">
	<path d="M51.7,18.7l-0.2-0.1l-3.8-7.3L45,6c-0.1-0.2-0.4-0.3-0.7-0.2L43.9,6c-0.2,0.1-0.3,0.4-0.2,0.7l2.6,6 c-1.9-1.8-4.1-3-6.6-3.6l-3.5-5.5c-0.1-0.2-0.4-0.2-0.7-0.1L35,3.6c-0.2,0.1-0.3,0.4-0.2,0.7l2.5,4.3c-0.3,0-0.8,0-1.1,0 c-1.3,0-2.6,0.2-3.9,0.6L29.9,7c0,0-7.5-6.8-7.6-6.8c-0.2-0.2-0.4-0.2-0.6,0l-0.3,0.3c-0.2,0.2-0.2,0.6,0,0.7L25.2,5l-6.8,2 C18,7.1,18,7.6,18.1,8c0.1,0.3,0.4,0.6,0.7,0.6l7.8-2.1L30,9.9c-3.6,1.7-5.6,4.5-5.6,4.5c-0.4,0.7-0.8,1.2-0.8,1.2 c-0.1,0.2,0,0.4,0.2,0.7l0.4,0.3c0.2,0.2,0.6,0.1,0.8-0.1c0,0,0.7-0.9,1.3-1.5c2.9-3.1,6.6-3.6,6.6-3.6c1.1-0.2,2.2-0.3,3.1-0.3 c5.2,0,9.7,2.9,12.1,7.1l0.3,0.6c-2.2-2.1-5.4-1.3-5.4-1.3c0.1,1,0.6,1.7,0.9,2.1l0.4,0.3l-0.7-0.1c0,0,0.8,1.2,2.8,1.4 c-0.1,0.1-0.1,0.1-0.1,0.2c-0.1,0.1-0.3,0.6-0.4,0.7c-0.4,0.8-1.2,1.9-2.9,4.5c-1.2,1.9-2.5,4-5.2,4.4c-2,0.3-12.4,2.2-20.6,2.5 c-0.6,0-1.2,0-2.1-0.3c-1.3-0.6-2.3-1.9-2.3-3.4c0-0.6,0.1-1,0.4-1.8c-0.1,0-2.9,0.9-2.8,3.5c0,0.4,0.1,0.8,0.2,1.1 c-0.6,0-1-0.9-1-0.9c-1,3,1,4,1.5,4.2c-0.8,0.9-1.2,2-1.2,3.3c0,2.2,1.9,4,2,4.2c1,1.2,1.7,2.6,1.7,4.3c0,1.2-0.3,2.3-0.9,3.3 c-0.3,0.7-0.9,1.3-1.4,1.9L12.9,64h2.6c-0.6-7.3-1.2-9.5-0.8-10.3c0,0,0.8-1.8,8.9-9.4l15.6,3.2l0.8,7.3l1,9.2h2.6l0.7-9.1l0.6-7.4 l7.8-11.4l0.3-10l1-0.1l5.4-0.4l0.9-3.6L51.7,18.7z"/>
</svg>