<?xml version="1.0" encoding="UTF-8"?> <svg xmlns="http://www.w3.org/2000/svg" xmlns:xlink="http://www.w3.org/1999/xlink" width="81px" height="83px" viewBox="0 0 81 83"><!-- Generator: Sketch 54 (76480) - https://sketchapp.com --><title>Rectangle 4</title><desc>Created with Sketch.</desc><g id="Visuals" stroke="none" stroke-width="1" fill="none" fill-rule="evenodd"><g id="3.0-Desktop---Category-Page-Industry" transform="translate(-593.000000, -1444.000000)" fill="#000000"><g id="desktop/description" transform="translate(-4.000000, 1202.000000)"><g id="desktop/numbers"><g id="infographic"><g id="logo" transform="translate(597.000000, 241.500000)"><path d="M45,46 L45,74 L62,74 L62,83 L19,83 L19,74 L36,74 L36,46 L19,46 L19,37 L62,37 L62,46 L45,46 Z M9,28 L9,83 L0,83 L0,1 L9,1 L72,1 L81,1 L81,83 L72,83 L72,28 L9,28 Z M9,19 L72,19 L72,10 L9,10 L9,19 Z" id="Rectangle-4"></path></g></g></g></g></g></g></svg> 