<?xml version="1.0" encoding="UTF-8"?> <svg xmlns="http://www.w3.org/2000/svg" xmlns:xlink="http://www.w3.org/1999/xlink" width="271px" height="271px" viewBox="0 0 271 271"><!-- Generator: Sketch 55.1 (78136) - https://sketchapp.com --><title>C3 CRM</title><desc>Created with Sketch.</desc><g id="C3-CRM" stroke="none" stroke-width="1" fill="none" fill-rule="evenodd"><g id="Group" fill="#000000" fill-rule="nonzero"><g transform="translate(0.000000, 180.000000)"><polygon id="Path" points="30.52 90 0.52 90 0.52 0 270.52 0 270.52 90 240.52 90 240.52 30 30.52 30"></polygon><rect id="Rectangle" x="120.52" y="15" width="30" height="75"></rect></g><polygon id="Path" points="90.52 150 0.52 150 0.52 0 90.52 0 90.52 30 30.52 30 30.52 120 90.52 120"></polygon><polygon id="Path" points="150.52 30 150.52 150 120.52 150 120.52 0 240.52 0 240.52 60 270.52 60 270.52 150 240.52 150 240.52 90 225.52 90 210.52 90 210.52 30"></polygon><rect id="Rectangle" x="150.52" y="60" width="60" height="30"></rect></g></g></svg> 