<?xml version="1.0" encoding="UTF-8"?> <svg xmlns="http://www.w3.org/2000/svg" xmlns:xlink="http://www.w3.org/1999/xlink" width="34px" height="34px" viewBox="0 0 34 34"><!-- Generator: sketchtool 54 (76480) - https://sketchapp.com --><title>C59893E0-645A-41CA-87ED-FC5845CE36FD</title><desc>Created with sketchtool.</desc><g id="Visuals" stroke="none" stroke-width="1" fill="none" fill-rule="evenodd"><g id="2.0-Desktop---Customers---AI-Software-Copy-3" transform="translate(-121.000000, -981.000000)" fill="#1a1a1a"><g id="ai-suite" transform="translate(82.000000, 420.000000)"><g id="ExM" transform="translate(39.000000, 561.000000)"><path d="M4,34 L0,34 L0,4 L0,0 L34,0 L34,4 L4,4 L4,11.952381 L34,11.952381 L34,15.952381 L4,15.952381 L4,30 L9.71428571,30 L9.71428571,34 L4,34 Z M25.9047619,23.8095238 L25.9047619,34 L21.9047619,34 L21.9047619,23.8095238 L17.8095238,23.8095238 L17.8095238,34 L13.8095238,34 L13.8095238,20 L14.5714286,20 L14.5714286,19.8095238 L34,19.8095238 L34,20 L34,34 L30,34 L30,23.8095238 L25.9047619,23.8095238 Z" id="Rectangle-3"></path></g></g></g></g></svg> 