<?xml version="1.0" encoding="utf-8"?>
<!-- Generator: Adobe Illustrator 23.0.4, SVG Export Plug-In . SVG Version: 6.00 Build 0)  -->
<svg version="1.1" id="Layer_1" xmlns="http://www.w3.org/2000/svg" xmlns:xlink="http://www.w3.org/1999/xlink" x="0px" y="0px"
	 viewBox="0 0 271 271" style="enable-background:new 0 0 271 271;" xml:space="preserve">
<title>C3 Sensor Health</title>
<desc>Created with Sketch.</desc>
<g>
	<polygon points="239.12,0 239.12,239.12 0,239.12 0,271 239.12,271 271,271 271,239.12 271,0 	"/>
	<polygon points="210.78,210.78 210.78,180.67 210.78,150.56 180.67,150.56 150.56,150.56 150.56,120.44 120.44,120.44 
		90.33,120.44 60.22,120.44 60.22,150.56 60.22,210.78 90.33,210.78 90.33,150.56 120.44,150.56 120.44,210.78 150.56,210.78 
		150.56,180.67 180.67,180.67 180.67,210.78 	"/>
	<path d="M30.11,90.33h150.56v30.11h30.11V30.11h0.01V0H30.11h-4.53H0v210.78h30.11V90.33z M180.67,30.11v30.11H30.11V30.11H180.67z
		"/>
</g>
</svg>
